<svg width="338" height="51" viewBox="0 0 338 51" fill="none" xmlns="http://www.w3.org/2000/svg">
<g clip-path="url(#clip0_1_191)">
<path d="M131.424 14.1279L124.249 23.3662L117.036 14.1279H113.439V36.6001V36.9878H113.83H117.018H117.409V36.6001V20.7851L124.214 29.2759L130.998 20.792V36.6001V36.9878H131.385H134.59H134.981V36.6001V14.1279H131.424Z" fill="#19343F"/>
<path d="M89.0528 14.1592H84.5938V36.9876H89.0528V14.1592Z" fill="#19343F"/>
<path d="M74.548 14.1734H61.9774V17.9595H74.548C75.1574 17.9595 75.6505 18.452 75.6505 19.0528V19.3112L63.7032 25.172C62.0091 26.0033 60.9594 27.6833 60.963 29.5554L60.97 32.1155C60.9771 34.8014 63.1819 36.9844 65.8905 36.9844H75.4885C75.7914 36.9844 76.0379 36.7399 76.0379 36.4395V33.9143C76.0591 33.8444 76.1049 33.7187 76.214 33.5965C76.3549 33.4428 76.5205 33.3834 76.5909 33.3624H79.4685V19.0493C79.4685 16.3599 77.2601 14.1699 74.548 14.1699V14.1734ZM65.894 33.2018C65.2847 33.2018 64.7916 32.7128 64.7916 32.1086L64.7845 29.5484C64.7845 29.1293 65.0205 28.752 65.3974 28.5669L75.6505 23.5374V33.2018H65.8905H65.894Z" fill="#19343F"/>
<path d="M106.28 14.1631H97.3161H93.498V36.988H97.3161V31.4451L108.467 25.9755C110.162 25.1442 111.211 23.4642 111.208 21.5921L111.201 19.0319C111.194 16.346 108.989 14.1631 106.28 14.1631ZM106.773 22.5806L97.3161 27.2189V17.9457H106.28C106.889 17.9457 107.383 18.4347 107.383 19.0389L107.39 21.5991C107.39 22.0182 107.154 22.3954 106.777 22.5806H106.773Z" fill="#19343F"/>
<path d="M49.6911 31.3891C48.9655 30.6835 48.0004 30.2993 46.9931 30.3098C46.2041 30.3168 45.4539 30.5648 44.8269 31.0084L37.374 26.8834C35.3593 25.7658 32.8797 25.9299 31.034 27.2187C31.5095 25.916 31.5095 24.477 31.034 23.1742C32.052 23.8867 33.2601 24.2569 34.4823 24.2569C35.472 24.2569 36.4723 24.0124 37.374 23.513L44.7812 19.4125C45.3975 19.8421 46.1478 20.0971 46.9543 20.0971C46.9649 20.0971 46.979 20.0971 46.9896 20.0971C48.004 20.0866 48.955 19.6884 49.6664 18.9689C50.3779 18.2494 50.7654 17.2994 50.7548 16.2935C50.7372 14.2153 49.0148 12.5423 46.9191 12.5598C45.9047 12.5703 44.9537 12.9684 44.2423 13.6879C43.5308 14.4074 43.1433 15.3575 43.1539 16.3634C43.1539 16.4297 43.161 16.4961 43.1645 16.5624L35.7608 20.6594C34.7288 21.2322 33.4221 21.0506 32.5873 20.2228L30.4282 18.0818C29.5935 17.254 29.4103 15.9582 29.988 14.9348L34.1582 7.52676C34.2252 7.53026 34.2956 7.53724 34.3625 7.53724C35.3487 7.53724 36.3314 7.16003 37.0746 6.40909C38.5434 4.92468 38.5187 2.53566 37.0253 1.07919C35.5284 -0.377272 33.1192 -0.352823 31.6504 1.12809C30.3402 2.44834 30.2204 4.49159 31.27 5.95154L27.1103 13.3421C25.9832 15.34 26.1488 17.7989 27.4485 19.6291C26.1347 19.1575 24.6871 19.1575 23.3698 19.6291C24.6695 17.7989 24.835 15.34 23.7079 13.3421L19.5728 5.99695C20.0237 5.35778 20.2667 4.59986 20.2597 3.80352C20.2421 1.72535 18.5197 0.04884 16.424 0.0697964C15.4096 0.0802745 14.4586 0.478445 13.7471 1.19795C13.0357 1.91745 12.6482 2.86747 12.6588 3.87337C12.6693 4.87928 13.0709 5.82231 13.7964 6.52784C14.5115 7.22639 15.4554 7.6071 16.4592 7.6071C16.4698 7.6071 16.4839 7.6071 16.4944 7.6071C16.5614 7.6071 16.6283 7.60011 16.6952 7.59662L20.8267 14.9348C21.4044 15.9582 21.2212 17.254 20.3865 18.0818L18.2274 20.2228C17.3926 21.0506 16.0859 21.2322 15.0539 20.6594L7.5833 16.524C7.58683 16.4437 7.59387 16.3668 7.59387 16.2865C7.5833 15.2806 7.18177 14.3376 6.4562 13.632C5.73063 12.9265 4.76907 12.5423 3.75821 12.5528C2.74381 12.5633 1.79282 12.9614 1.08134 13.6809C0.376902 14.4004 -0.0105391 15.3505 2.74808e-05 16.3564C0.0105941 17.3623 0.412124 18.3053 1.1377 19.0108C1.87736 19.7303 2.83891 20.0901 3.80047 20.0901C4.57535 20.0901 5.34671 19.8526 6.00184 19.3915L13.4548 23.5165C14.36 24.0159 15.3568 24.2604 16.3465 24.2604C17.5652 24.2604 18.7768 23.8902 19.7947 23.1777C19.3192 24.4804 19.3192 25.9195 19.7947 27.2222C17.9491 25.9334 15.4695 25.7693 13.4548 26.8869L6.04411 30.9874C5.41716 30.5508 4.65636 30.2958 3.83569 30.3028C1.73999 30.3203 0.0528603 32.0282 0.0704713 34.1064C0.0880822 36.1741 1.7893 37.8401 3.87092 37.8401C3.88148 37.8401 3.89557 37.8401 3.90614 37.8401C6.00184 37.8227 7.68897 36.1147 7.67136 34.0365C7.67136 33.9702 7.66431 33.9038 7.66079 33.8375L15.0644 29.7405C16.0964 29.1677 17.4032 29.3493 18.2379 30.1771L20.397 32.3181C21.2318 33.1459 21.4149 34.4417 20.8373 35.4651L16.667 42.8731C15.6139 42.8173 14.5432 43.1875 13.7507 43.9908C12.2819 45.4752 12.3066 47.8642 13.8 49.3207C14.515 50.0193 15.4589 50.4 16.4627 50.4C16.4733 50.4 16.4874 50.4 16.498 50.4C17.5124 50.3895 18.4634 49.9913 19.1748 49.2718C19.8863 48.5523 20.2738 47.6023 20.2632 46.5964C20.2561 45.814 20.0061 45.0701 19.5588 44.4484L23.7185 37.0577C24.8456 35.0599 24.68 32.601 23.3803 30.7708C24.6941 31.2424 26.1417 31.2424 27.459 30.7708C26.1593 32.601 25.9938 35.0599 27.1209 37.0577L31.2559 44.4029C30.8051 45.0421 30.5621 45.8 30.5691 46.5964C30.5797 47.6023 30.9812 48.5453 31.7068 49.2509C32.4218 49.9494 33.3657 50.3301 34.3696 50.3301C34.3801 50.3301 34.3942 50.3301 34.4048 50.3301C36.5005 50.3126 38.1876 48.6047 38.17 46.5265C38.1524 44.4484 36.43 42.7753 34.3343 42.7928C34.2674 42.7928 34.2005 42.7998 34.1336 42.8033L30.002 35.4651C29.4244 34.4417 29.6076 33.1459 30.4423 32.3181L32.6014 30.1771C33.4362 29.3493 34.7429 29.1677 35.7749 29.7405L43.2455 33.8759C43.1891 34.9202 43.5625 35.982 44.3726 36.7679C45.1122 37.4874 46.0738 37.8471 47.0354 37.8471C47.9969 37.8471 49.0043 37.4699 49.7475 36.719C50.4589 35.9995 50.8464 35.0494 50.8358 34.0435C50.8252 33.0376 50.4237 32.0946 49.6981 31.3891H49.6911ZM45.9083 15.3051C46.183 15.0256 46.5528 14.872 46.9473 14.8685C46.9508 14.8685 46.9579 14.8685 46.9614 14.8685C47.768 14.8685 48.4266 15.5146 48.4337 16.3145C48.4372 16.7056 48.2857 17.0724 48.011 17.3518C47.7363 17.6312 47.3664 17.7849 46.972 17.7884C46.1654 17.7989 45.4926 17.1457 45.4856 16.3424C45.4821 15.9512 45.6335 15.5845 45.9083 15.3051ZM33.3164 2.74173C33.6052 2.45183 33.9856 2.30514 34.3696 2.30514C34.7535 2.30514 35.1163 2.44485 35.4016 2.72427C35.9827 3.29009 35.9898 4.21566 35.4192 4.79196C34.8486 5.36826 33.9152 5.37525 33.334 4.80942C32.7529 4.2436 32.7458 3.31803 33.3164 2.74173ZM14.994 3.84892C14.9905 3.45774 15.1419 3.091 15.4167 2.81159C15.6914 2.53217 16.0612 2.37849 16.4557 2.37499H16.4698C17.2764 2.37499 17.935 3.02115 17.9421 3.82098C17.9456 4.21217 17.7941 4.5789 17.5194 4.85832C17.2447 5.13774 16.8748 5.29142 16.4804 5.29491C16.0894 5.29841 15.716 5.14822 15.4343 4.87579C15.1525 4.60335 14.9975 4.23662 14.994 3.84543V3.84892ZM2.76847 17.3658C2.48669 17.0933 2.33172 16.7266 2.3282 16.3354C2.32467 15.9442 2.47613 15.5775 2.75086 15.2981C3.02559 15.0187 3.39542 14.865 3.7899 14.8615C3.79343 14.8615 3.80047 14.8615 3.80399 14.8615C4.19143 14.8615 4.55774 15.0082 4.836 15.2806C5.11777 15.553 5.27275 15.9198 5.27627 16.311C5.27979 16.7022 5.12834 17.0689 4.85361 17.3483C4.28301 17.9246 3.34963 17.9316 2.76847 17.3658ZM3.885 35.5349C3.07842 35.5419 2.40568 34.8923 2.39864 34.0889C2.39159 33.2821 3.04672 32.622 3.85683 32.615C3.86035 32.615 3.86739 32.615 3.87092 32.615C4.6775 32.615 5.33615 33.2612 5.34319 34.061C5.35024 34.8678 4.69511 35.5279 3.885 35.5349ZM17.5124 47.6582C17.2376 47.9376 16.8678 48.0913 16.4733 48.0948C16.0788 48.0983 15.709 47.9481 15.4272 47.6756C14.8461 47.1098 14.839 46.1842 15.4096 45.6079C15.9802 45.0316 16.9136 45.0247 17.4947 45.5905C17.7765 45.8629 17.9315 46.2296 17.935 46.6208C17.9385 47.012 17.7871 47.3788 17.5124 47.6582ZM35.8348 46.551C35.8418 47.3578 35.1867 48.0179 34.3766 48.0249C33.9821 48.0249 33.6123 47.8782 33.3305 47.6058C33.0487 47.3333 32.8938 46.9666 32.8902 46.5754C32.8867 46.1842 33.0382 45.8175 33.3129 45.5381C33.5876 45.2587 33.9575 45.105 34.352 45.1015C34.3555 45.1015 34.3625 45.1015 34.366 45.1015C35.1726 45.1015 35.8313 45.7477 35.8383 46.5475L35.8348 46.551ZM23.0211 27.575C21.7002 26.2652 21.7002 24.1417 23.0211 22.8284C24.3419 21.5186 26.4834 21.5186 27.8077 22.8284C29.1285 24.1382 29.1285 26.2617 27.8077 27.575C26.4869 28.8848 24.3454 28.8848 23.0211 27.575ZM48.0815 35.1018C47.5109 35.6781 46.5775 35.6851 45.9963 35.1193C45.4152 34.5535 45.4081 33.6279 45.9787 33.0516C46.2534 32.7722 46.6233 32.6185 47.0178 32.615C47.4122 32.608 47.7821 32.7617 48.0638 33.0341C48.3456 33.3066 48.5006 33.6733 48.5041 34.0645C48.5076 34.4557 48.3562 34.8224 48.0815 35.1018Z" fill="#2BA7AA"/>
<path d="M163.339 23.7725V15.1559H160.461V14.2129H167.371V15.1559H164.494V23.7725H163.339Z" fill="#19343F"/>
<path d="M168.502 23.7719V13.9434H169.657V17.7539C169.897 17.3453 170.221 17.0205 170.637 16.7829C171.049 16.5454 171.496 16.4267 171.971 16.4267C172.531 16.4267 173.007 16.528 173.398 16.734C173.789 16.9401 174.085 17.251 174.293 17.6701C174.5 18.0892 174.603 18.6201 174.603 19.2663V23.7719H173.458V19.3885C173.458 18.7319 173.303 18.2394 172.989 17.9076C172.676 17.5758 172.257 17.4081 171.721 17.4081C171.345 17.4081 170.999 17.4955 170.689 17.6736C170.376 17.8517 170.126 18.1137 169.939 18.4595C169.752 18.8052 169.657 19.2244 169.657 19.7168V23.7719H168.502Z" fill="#19343F"/>
<path d="M179.241 23.9361C178.6 23.9361 178.029 23.7824 177.533 23.4716C177.036 23.1607 176.649 22.7241 176.37 22.1618C176.092 21.596 175.951 20.9394 175.951 20.1814C175.951 19.4235 176.092 18.7669 176.37 18.2011C176.649 17.6352 177.04 17.1987 177.54 16.8913C178.04 16.5804 178.614 16.4268 179.269 16.4268C179.966 16.4268 180.551 16.5804 181.016 16.8913C181.481 17.2021 181.837 17.6143 182.076 18.1347C182.316 18.6551 182.436 19.2209 182.436 19.8426V20.1151C182.436 20.2059 182.432 20.3142 182.421 20.4434H176.818V19.5562H181.305C181.287 18.8542 181.083 18.3198 180.692 17.9531C180.301 17.5829 179.819 17.4012 179.241 17.4012C178.857 17.4012 178.501 17.4955 178.174 17.6806C177.846 17.8658 177.585 18.1417 177.381 18.5084C177.18 18.8717 177.078 19.3257 177.078 19.8741V20.2548C177.078 20.8555 177.18 21.3585 177.381 21.7636C177.582 22.1688 177.846 22.4727 178.174 22.6718C178.501 22.8708 178.853 22.9721 179.241 22.9721C179.755 22.9721 180.16 22.8743 180.453 22.6787C180.745 22.4831 180.963 22.2037 181.101 21.8405H182.242C182.133 22.2421 181.942 22.6019 181.671 22.9197C181.4 23.2376 181.062 23.489 180.653 23.6707C180.245 23.8523 179.773 23.9431 179.241 23.9431V23.9361Z" fill="#19343F"/>
<path d="M186.634 23.7719L190.185 14.2158H191.41L194.95 23.7719H193.71L190.791 15.6478L187.842 23.7719H186.631H186.634ZM188.258 21.3165L188.589 20.3875H192.953L193.284 21.3165H188.258Z" fill="#19343F"/>
<path d="M196.062 23.7715V16.5905H197.109L197.19 17.9003C197.355 17.572 197.57 17.2995 197.838 17.0795C198.102 16.8629 198.426 16.6988 198.81 16.587C199.19 16.4787 199.62 16.4229 200.095 16.4229V17.6243H199.38C199.106 17.6243 198.838 17.6593 198.581 17.7326C198.324 17.806 198.091 17.9247 197.887 18.0889C197.679 18.253 197.517 18.4766 197.397 18.7595C197.278 19.0424 197.218 19.3987 197.218 19.8248V23.7715H196.062Z" fill="#19343F"/>
<path d="M203.967 23.7726C203.555 23.7726 203.196 23.7097 202.893 23.5805C202.59 23.4548 202.357 23.2382 202.199 22.9309C202.037 22.627 201.959 22.2149 201.959 21.6944V17.5591H200.691V16.5881H201.959L202.111 14.7998H203.115V16.5881H205.165V17.5591H203.115V21.6944C203.115 22.124 203.203 22.4105 203.375 22.5606C203.548 22.7108 203.858 22.7877 204.298 22.7877H205.136V23.7691H203.967V23.7726Z" fill="#19343F"/>
<path d="M207.161 15.2252C206.932 15.2252 206.742 15.1518 206.591 15.0016C206.439 14.8514 206.365 14.6628 206.365 14.4358C206.365 14.2088 206.439 14.0237 206.591 13.884C206.742 13.7442 206.932 13.6709 207.161 13.6709C207.39 13.6709 207.57 13.7408 207.725 13.884C207.88 14.0237 207.957 14.2088 207.957 14.4358C207.957 14.6628 207.88 14.8514 207.725 15.0016C207.57 15.1518 207.38 15.2252 207.161 15.2252ZM206.584 23.7719V16.5908H207.739V23.7719H206.584Z" fill="#19343F"/>
<path d="M209.958 23.7719V17.5583H208.842V16.5873H209.958V15.8224C209.958 15.3858 210.032 15.0296 210.18 14.7502C210.328 14.4742 210.547 14.2682 210.835 14.1354C211.124 14.0027 211.48 13.9363 211.903 13.9363H212.589V14.9178H212.079C211.741 14.9178 211.494 14.9877 211.343 15.1239C211.191 15.2601 211.114 15.5011 211.114 15.8469V16.5838H215.066V23.7649H213.91V17.5513H211.114V23.7649H209.958V23.7719ZM214.502 15.2252C214.284 15.2252 214.093 15.1518 213.938 15.0016C213.784 14.8514 213.706 14.6628 213.706 14.4358C213.706 14.2088 213.784 14.0237 213.938 13.884C214.093 13.7442 214.284 13.6709 214.502 13.6709C214.72 13.6709 214.921 13.7408 215.073 13.884C215.224 14.0237 215.302 14.2088 215.302 14.4358C215.302 14.6628 215.228 14.8514 215.073 15.0016C214.918 15.1518 214.731 15.2252 214.502 15.2252Z" fill="#19343F"/>
<path d="M219.979 23.9361C219.317 23.9361 218.733 23.7789 218.218 23.4646C217.704 23.1503 217.299 22.7102 217.007 22.1478C216.714 21.582 216.566 20.9289 216.566 20.1814C216.566 19.434 216.714 18.7669 217.007 18.208C217.299 17.6492 217.704 17.2126 218.218 16.8983C218.733 16.5839 219.321 16.4268 219.979 16.4268C220.807 16.4268 221.497 16.6468 222.05 17.0834C222.607 17.52 222.963 18.1068 223.118 18.8437H221.934C221.832 18.3897 221.6 18.0369 221.24 17.7854C220.878 17.534 220.451 17.4082 219.965 17.4082C219.543 17.4082 219.166 17.513 218.831 17.7226C218.497 17.9321 218.232 18.243 218.039 18.6516C217.845 19.0603 217.75 19.5702 217.75 20.1814C217.75 20.6355 217.806 21.0406 217.915 21.3899C218.025 21.7392 218.18 22.0326 218.377 22.2631C218.574 22.4971 218.807 22.6717 219.078 22.7905C219.349 22.9093 219.645 22.9686 219.965 22.9686C220.286 22.9686 220.596 22.9127 220.867 22.7975C221.138 22.6822 221.367 22.5181 221.554 22.298C221.741 22.0815 221.867 21.8195 221.934 21.5192H223.118C222.97 22.2387 222.614 22.8219 222.05 23.2655C221.487 23.7126 220.797 23.9361 219.979 23.9361Z" fill="#19343F"/>
<path d="M225.214 15.2252C224.985 15.2252 224.794 15.1518 224.643 15.0016C224.492 14.8514 224.414 14.6628 224.414 14.4358C224.414 14.2088 224.492 14.0237 224.643 13.884C224.794 13.7442 224.985 13.6709 225.214 13.6709C225.443 13.6709 225.622 13.7408 225.777 13.884C225.932 14.0272 226.013 14.2088 226.013 14.4358C226.013 14.6628 225.936 14.8514 225.777 15.0016C225.622 15.1518 225.432 15.2252 225.214 15.2252ZM224.636 23.7719V16.5908H225.791V23.7719H224.636Z" fill="#19343F"/>
<path d="M229.824 23.9365C229.274 23.9365 228.813 23.8352 228.447 23.6292C228.08 23.4231 227.806 23.1507 227.622 22.8119C227.439 22.4696 227.348 22.1028 227.348 21.7117C227.348 21.2401 227.471 20.835 227.714 20.5032C227.957 20.1714 228.299 19.9199 228.739 19.7453C229.179 19.5741 229.693 19.4868 230.282 19.4868H232.085C232.085 19.0223 232.029 18.6346 231.919 18.3272C231.81 18.0199 231.631 17.7858 231.384 17.6322C231.138 17.4785 230.806 17.3981 230.394 17.3981C229.982 17.3981 229.627 17.4994 229.334 17.7055C229.042 17.9116 228.855 18.212 228.785 18.6136H227.601C227.658 18.1421 227.816 17.7404 228.084 17.4191C228.348 17.0978 228.686 16.8498 229.095 16.6821C229.503 16.5145 229.936 16.4307 230.394 16.4307C231.046 16.4307 231.585 16.5459 232.004 16.7799C232.427 17.0139 232.737 17.3353 232.941 17.7509C233.142 18.1665 233.244 18.6555 233.244 19.2179V23.7794H232.212L232.141 22.5499C232.05 22.742 231.934 22.9201 231.789 23.0878C231.648 23.2554 231.479 23.4056 231.285 23.5314C231.092 23.6606 230.873 23.7584 230.63 23.8317C230.387 23.9051 230.12 23.94 229.824 23.94V23.9365ZM229.989 22.969C230.292 22.969 230.57 22.8992 230.828 22.763C231.085 22.6268 231.307 22.4416 231.497 22.2111C231.683 21.9806 231.828 21.7186 231.93 21.4253C232.032 21.1354 232.081 20.828 232.081 20.5102V20.374H230.373C229.944 20.374 229.591 20.4298 229.32 20.5381C229.049 20.6464 228.855 20.8001 228.735 20.9957C228.616 21.1912 228.556 21.4113 228.556 21.6593C228.556 21.9247 228.612 22.1517 228.721 22.3473C228.831 22.5429 228.996 22.6966 229.211 22.8049C229.426 22.9132 229.686 22.969 229.989 22.969Z" fill="#19343F"/>
<path d="M234.877 23.7719V13.9434H236.032V23.7719H234.877Z" fill="#19343F"/>
<path d="M241.225 23.7719V14.2158H242.38V23.7719H241.225Z" fill="#19343F"/>
<path d="M244.141 23.7715V16.5905H245.187L245.243 17.7221C245.454 17.3135 245.761 16.9957 246.159 16.7651C246.557 16.5346 247.018 16.4229 247.543 16.4229C248.068 16.4229 248.54 16.5241 248.934 16.7232C249.329 16.9223 249.635 17.2297 249.857 17.6383C250.079 18.047 250.188 18.5674 250.188 19.1961V23.7715H249.033V19.3218C249.033 18.6861 248.874 18.2076 248.557 17.8898C248.24 17.572 247.814 17.4113 247.282 17.4113C246.923 17.4113 246.596 17.4951 246.293 17.6628C245.99 17.8304 245.75 18.0784 245.571 18.4067C245.391 18.735 245.303 19.1367 245.303 19.6082V23.7715H244.148H244.141Z" fill="#19343F"/>
<path d="M254.633 23.7726C254.221 23.7726 253.862 23.7097 253.559 23.5805C253.256 23.4548 253.023 23.2382 252.865 22.9309C252.703 22.627 252.625 22.2149 252.625 21.6944V17.5591H251.357V16.5881H252.625L252.777 14.7998H253.781V16.5881H255.831V17.5591H253.781V21.6944C253.781 22.124 253.869 22.4105 254.041 22.5606C254.214 22.7108 254.524 22.7877 254.964 22.7877H255.802V23.7691H254.633V23.7726Z" fill="#19343F"/>
<path d="M259.948 23.9361C259.307 23.9361 258.736 23.7824 258.24 23.4716C257.743 23.1607 257.356 22.7241 257.077 22.1618C256.799 21.596 256.658 20.9394 256.658 20.1814C256.658 19.4235 256.799 18.7669 257.077 18.2011C257.356 17.6352 257.747 17.1987 258.247 16.8913C258.747 16.5839 259.324 16.4268 259.976 16.4268C260.673 16.4268 261.255 16.5804 261.723 16.8913C262.192 17.2021 262.544 17.6143 262.783 18.1347C263.023 18.6551 263.143 19.2209 263.143 19.8426V20.1151C263.143 20.2059 263.139 20.3142 263.128 20.4434H257.525V19.5562H262.012C261.994 18.8542 261.79 18.3198 261.399 17.9531C261.008 17.5829 260.526 17.4012 259.948 17.4012C259.564 17.4012 259.208 17.4955 258.881 17.6806C258.553 17.8658 258.292 18.1417 258.088 18.5084C257.884 18.8752 257.785 19.3257 257.785 19.8741V20.2548C257.785 20.8555 257.887 21.3585 258.088 21.7636C258.289 22.1688 258.553 22.4727 258.881 22.6718C259.205 22.8708 259.56 22.9721 259.948 22.9721C260.462 22.9721 260.867 22.8743 261.16 22.6787C261.452 22.4831 261.67 22.2037 261.808 21.8405H262.949C262.84 22.2421 262.649 22.6019 262.378 22.9197C262.107 23.2376 261.769 23.489 261.36 23.6707C260.952 23.8523 260.48 23.9431 259.948 23.9431V23.9361Z" fill="#19343F"/>
<path d="M264.465 23.7719V13.9434H265.62V23.7719H264.465Z" fill="#19343F"/>
<path d="M267.299 23.7719V13.9434H268.454V23.7719H267.299Z" fill="#19343F"/>
<path d="M270.825 15.2252C270.596 15.2252 270.406 15.1518 270.254 15.0016C270.103 14.8514 270.025 14.6628 270.025 14.4358C270.025 14.2088 270.103 14.0237 270.254 13.884C270.406 13.7442 270.596 13.6709 270.825 13.6709C271.054 13.6709 271.234 13.7408 271.388 13.884C271.543 14.0272 271.624 14.2088 271.624 14.4358C271.624 14.6628 271.547 14.8514 271.388 15.0016C271.234 15.1518 271.043 15.2252 270.825 15.2252ZM270.247 23.7719V16.5908H271.403V23.7719H270.247Z" fill="#19343F"/>
<path d="M276.017 26.9399C275.366 26.9399 274.795 26.8595 274.302 26.7024C273.813 26.5417 273.429 26.3007 273.161 25.9724C272.893 25.6441 272.756 25.2389 272.756 24.7569C272.756 24.5299 272.798 24.2924 272.886 24.0479C272.974 23.8034 273.126 23.5659 273.341 23.3389C273.555 23.1118 273.862 22.9058 274.256 22.7241L275.137 23.1887C274.612 23.3878 274.274 23.6218 274.119 23.8837C273.964 24.1457 273.886 24.4041 273.886 24.6486C273.886 24.949 273.975 25.2005 274.154 25.3996C274.334 25.5987 274.584 25.7488 274.904 25.8501C275.225 25.9514 275.598 26.0003 276.021 26.0003C276.444 26.0003 276.789 25.9479 277.088 25.8431C277.388 25.7384 277.616 25.5882 277.775 25.3926C277.937 25.197 278.014 24.9665 278.014 24.7045C278.014 24.3203 277.891 24.0234 277.641 23.8104C277.395 23.5973 276.912 23.4716 276.197 23.4332C275.637 23.3982 275.169 23.3458 274.792 23.283C274.415 23.2201 274.105 23.1433 273.862 23.0594C273.619 22.9721 273.418 22.8743 273.256 22.7661C273.094 22.6578 272.95 22.5425 272.823 22.4238V22.1094L274.186 20.8136L275.274 21.1699L273.788 22.3853L273.967 21.8649C274.07 21.9383 274.165 22.0046 274.256 22.071C274.348 22.1339 274.475 22.1932 274.637 22.2421C274.799 22.291 275.021 22.3399 275.313 22.3853C275.602 22.4308 275.986 22.4727 276.461 22.5076C277.123 22.553 277.648 22.6613 278.046 22.8359C278.441 23.0105 278.726 23.248 278.899 23.5519C279.071 23.8558 279.159 24.226 279.159 24.6661C279.159 25.0468 279.05 25.4135 278.835 25.7593C278.62 26.1051 278.279 26.388 277.817 26.6115C277.352 26.8351 276.754 26.9468 276.021 26.9468L276.017 26.9399ZM276.003 21.5331C275.415 21.5331 274.918 21.4214 274.51 21.1978C274.101 20.9743 273.791 20.6704 273.58 20.2827C273.369 19.895 273.263 19.4619 273.263 18.9799C273.263 18.4979 273.372 18.0648 273.587 17.6841C273.802 17.3034 274.115 16.9961 274.524 16.769C274.933 16.542 275.426 16.4268 276.003 16.4268C276.581 16.4268 277.099 16.542 277.504 16.769C277.909 16.9961 278.215 17.2999 278.427 17.6841C278.638 18.0648 278.744 18.4979 278.744 18.9799C278.744 19.4619 278.638 19.895 278.427 20.2827C278.215 20.6704 277.909 20.9743 277.504 21.1978C277.099 21.4214 276.599 21.5331 276.003 21.5331ZM276.003 20.5901C276.518 20.5901 276.916 20.4574 277.201 20.1884C277.486 19.9195 277.627 19.5178 277.627 18.9799C277.627 18.4421 277.486 18.0439 277.201 17.7784C276.916 17.5165 276.518 17.3838 276.003 17.3838C275.517 17.3838 275.119 17.5165 274.813 17.7784C274.506 18.0439 274.351 18.4421 274.351 18.9799C274.351 19.5178 274.499 19.9195 274.799 20.1884C275.098 20.4574 275.5 20.5901 276.003 20.5901ZM277.215 17.5619L276.87 16.5909H279.705V17.4501L277.211 17.5584L277.215 17.5619Z" fill="#19343F"/>
<path d="M283.548 23.9361C282.907 23.9361 282.336 23.7824 281.839 23.4716C281.343 23.1607 280.955 22.7241 280.677 22.1618C280.399 21.596 280.258 20.9394 280.258 20.1814C280.258 19.4235 280.399 18.7669 280.677 18.2011C280.955 17.6352 281.346 17.1987 281.846 16.8913C282.346 16.5804 282.921 16.4268 283.576 16.4268C284.273 16.4268 284.858 16.5804 285.323 16.8913C285.788 17.2021 286.143 17.6143 286.383 18.1347C286.622 18.6551 286.742 19.2209 286.742 19.8426V20.1151C286.742 20.2059 286.739 20.3142 286.728 20.4434H281.124V19.5562H285.612C285.594 18.8542 285.39 18.3198 284.999 17.9531C284.608 17.5829 284.125 17.4012 283.548 17.4012C283.164 17.4012 282.808 17.4955 282.48 17.6806C282.153 17.8658 281.892 18.1417 281.688 18.5084C281.487 18.8717 281.385 19.3257 281.385 19.8741V20.2548C281.385 20.8555 281.487 21.3585 281.688 21.7636C281.889 22.1688 282.153 22.4727 282.48 22.6718C282.808 22.8708 283.16 22.9721 283.548 22.9721C284.062 22.9721 284.467 22.8743 284.759 22.6787C285.052 22.4831 285.27 22.2037 285.407 21.8405H286.548C286.439 22.2421 286.249 22.6019 285.978 22.9197C285.707 23.2376 285.369 23.489 284.96 23.6707C284.551 23.8523 284.079 23.9431 283.548 23.9431V23.9361Z" fill="#19343F"/>
<path d="M288.062 23.7715V16.5905H289.109L289.165 17.7221C289.376 17.3135 289.683 16.9957 290.081 16.7651C290.479 16.5346 290.94 16.4229 291.465 16.4229C291.99 16.4229 292.462 16.5241 292.856 16.7232C293.251 16.9223 293.557 17.2297 293.779 17.6383C293.997 18.047 294.11 18.5674 294.11 19.1961V23.7715H292.955V19.3218C292.955 18.6861 292.796 18.2076 292.479 17.8898C292.162 17.572 291.74 17.4113 291.204 17.4113C290.845 17.4113 290.514 17.4951 290.215 17.6628C289.912 17.8304 289.672 18.0784 289.493 18.4067C289.313 18.735 289.225 19.1367 289.225 19.6082V23.7715H288.07H288.062Z" fill="#19343F"/>
<path d="M298.87 23.9361C298.208 23.9361 297.623 23.7789 297.109 23.4646C296.595 23.1503 296.19 22.7102 295.897 22.1478C295.605 21.582 295.457 20.9289 295.457 20.1814C295.457 19.434 295.605 18.7669 295.897 18.208C296.19 17.6492 296.595 17.2126 297.109 16.8983C297.623 16.5839 298.211 16.4268 298.87 16.4268C299.694 16.4268 300.388 16.6468 300.941 17.0834C301.498 17.52 301.853 18.1068 302.008 18.8437H300.825C300.723 18.3897 300.494 18.0369 300.131 17.7854C299.768 17.534 299.346 17.4082 298.856 17.4082C298.433 17.4082 298.056 17.513 297.722 17.7226C297.387 17.9321 297.123 18.243 296.929 18.6516C296.736 19.0603 296.64 19.5702 296.64 20.1814C296.64 20.6355 296.697 21.0406 296.806 21.3899C296.915 21.7392 297.07 22.0326 297.267 22.2631C297.465 22.4971 297.697 22.6717 297.968 22.7905C298.24 22.9093 298.535 22.9686 298.856 22.9686C299.176 22.9686 299.486 22.9127 299.758 22.7975C300.029 22.6822 300.258 22.5181 300.448 22.298C300.635 22.0815 300.761 21.8195 300.825 21.5192H302.008C301.86 22.2387 301.505 22.8219 300.941 23.2655C300.378 23.7126 299.687 23.9361 298.87 23.9361Z" fill="#19343F"/>
<path d="M306.413 23.9361C305.772 23.9361 305.201 23.7824 304.705 23.4716C304.208 23.1607 303.82 22.7241 303.542 22.1618C303.264 21.596 303.123 20.9394 303.123 20.1814C303.123 19.4235 303.264 18.7669 303.542 18.2011C303.82 17.6352 304.211 17.1987 304.712 16.8913C305.212 16.5804 305.786 16.4268 306.441 16.4268C307.138 16.4268 307.723 16.5804 308.188 16.8913C308.653 17.2021 309.009 17.6143 309.248 18.1347C309.488 18.6551 309.607 19.2209 309.607 19.8426V20.1151C309.607 20.2059 309.604 20.3142 309.593 20.4434H303.99V19.5562H308.477C308.459 18.8542 308.255 18.3198 307.864 17.9531C307.473 17.5829 306.99 17.4012 306.413 17.4012C306.029 17.4012 305.673 17.4955 305.346 17.6806C305.018 17.8658 304.757 18.1417 304.553 18.5084C304.352 18.8717 304.25 19.3257 304.25 19.8741V20.2548C304.25 20.8555 304.352 21.3585 304.553 21.7636C304.754 22.1688 305.018 22.4727 305.346 22.6718C305.673 22.8708 306.025 22.9721 306.413 22.9721C306.927 22.9721 307.332 22.8743 307.624 22.6787C307.917 22.4831 308.135 22.2037 308.272 21.8405H309.414C309.304 22.2421 309.114 22.6019 308.843 22.9197C308.572 23.2376 308.234 23.489 307.825 23.6707C307.417 23.8523 306.945 23.9431 306.413 23.9431V23.9361Z" fill="#19343F"/>
<path d="M161.096 36.9077V27.3516H164.195C164.967 27.3516 165.601 27.4808 166.094 27.7323C166.59 27.9872 166.957 28.3295 167.196 28.7626C167.436 29.1957 167.555 29.6847 167.555 30.2296C167.555 30.7744 167.436 31.2529 167.196 31.6895C166.957 32.1261 166.594 32.4719 166.101 32.7269C165.611 32.9818 164.974 33.1076 164.195 33.1076H162.255V36.9042H161.099L161.096 36.9077ZM162.251 32.1401H164.178C164.984 32.1401 165.551 31.9655 165.879 31.6162C166.203 31.2669 166.368 30.8024 166.368 30.2296C166.368 29.6568 166.206 29.1573 165.879 28.8185C165.551 28.4762 164.984 28.3051 164.178 28.3051H162.251V32.1401Z" fill="#19343F"/>
<path d="M168.777 36.9083V29.7272H169.823L169.904 31.037C170.07 30.7087 170.285 30.4362 170.553 30.2162C170.82 29.9997 171.141 29.8355 171.525 29.7237C171.905 29.6155 172.335 29.5596 172.814 29.5596V30.7611H172.099C171.824 30.7611 171.556 30.796 171.299 30.8693C171.042 30.9427 170.81 31.0614 170.605 31.2256C170.398 31.3898 170.236 31.6133 170.116 31.8962C169.996 32.1791 169.936 32.5319 169.936 32.9615V36.9083H168.781H168.777Z" fill="#19343F"/>
<path d="M176.723 37.0728C176.054 37.0728 175.462 36.9192 174.948 36.6083C174.434 36.2974 174.036 35.8609 173.75 35.2985C173.465 34.7362 173.324 34.0761 173.324 33.3182C173.324 32.5602 173.468 31.8931 173.757 31.3308C174.046 30.7685 174.451 30.3354 174.969 30.028C175.487 29.7172 176.082 29.5635 176.751 29.5635C177.42 29.5635 178.026 29.7172 178.533 30.028C179.044 30.3389 179.439 30.772 179.724 31.3308C180.009 31.8896 180.15 32.5532 180.15 33.3182C180.15 34.0831 180.006 34.7327 179.717 35.2985C179.428 35.8644 179.026 36.3009 178.512 36.6083C177.998 36.9157 177.403 37.0728 176.723 37.0728ZM176.723 36.0879C177.146 36.0879 177.526 35.9866 177.864 35.7805C178.202 35.5745 178.474 35.2671 178.671 34.8515C178.868 34.4358 178.967 33.9259 178.967 33.3147C178.967 32.7034 178.872 32.1795 178.678 31.7709C178.484 31.3622 178.22 31.0549 177.885 30.8488C177.551 30.6427 177.17 30.5414 176.751 30.5414C176.332 30.5414 175.962 30.6427 175.621 30.8488C175.282 31.0549 175.011 31.3622 174.807 31.7709C174.606 32.1795 174.504 32.693 174.504 33.3147C174.504 33.9364 174.603 34.4358 174.8 34.8515C174.997 35.2671 175.265 35.5745 175.599 35.7805C175.934 35.9866 176.307 36.0879 176.723 36.0879Z" fill="#19343F"/>
<path d="M184.541 37.0728C183.9 37.0728 183.33 36.9086 182.833 36.5803C182.336 36.252 181.952 35.8049 181.678 35.2356C181.403 34.6663 181.266 34.0236 181.266 33.3041C181.266 32.5846 181.403 31.9315 181.678 31.3726C181.952 30.8138 182.34 30.3702 182.833 30.0489C183.33 29.7276 183.904 29.5634 184.555 29.5634C185.126 29.5634 185.612 29.6787 186.021 29.9057C186.429 30.1327 186.753 30.4506 186.993 30.8627V27.0801H188.148V36.9086H187.102L187.007 35.763C186.869 35.99 186.686 36.2031 186.464 36.4057C186.242 36.6082 185.968 36.7689 185.651 36.8911C185.334 37.0134 184.964 37.0763 184.541 37.0763V37.0728ZM184.693 36.0738C185.151 36.0738 185.552 35.9621 185.89 35.7385C186.228 35.515 186.493 35.1972 186.676 34.7815C186.859 34.3659 186.95 33.8769 186.95 33.3146C186.95 32.7523 186.859 32.2598 186.676 31.8476C186.493 31.432 186.232 31.1142 185.89 30.8906C185.552 30.6671 185.151 30.5553 184.693 30.5553C184.259 30.5553 183.876 30.6671 183.537 30.8906C183.199 31.1142 182.932 31.432 182.738 31.8476C182.544 32.2633 182.449 32.7523 182.449 33.3146C182.449 33.8769 182.544 34.3694 182.738 34.7815C182.932 35.1972 183.196 35.515 183.537 35.7385C183.879 35.9621 184.263 36.0738 184.693 36.0738Z" fill="#19343F"/>
<path d="M192.432 37.0718C191.9 37.0718 191.435 36.9705 191.041 36.7714C190.647 36.5723 190.34 36.2649 190.118 35.8493C189.896 35.4337 189.787 34.9202 189.787 34.2985V29.7266H190.942V34.1763C190.942 34.812 191.101 35.2905 191.418 35.6083C191.735 35.9261 192.158 36.0868 192.693 36.0868C193.059 36.0868 193.39 36.003 193.683 35.8353C193.975 35.6677 194.211 35.4197 194.391 35.0914C194.57 34.7631 194.658 34.3649 194.658 33.8899V29.7266H195.814V36.9076H194.767L194.697 35.762C194.503 36.1811 194.207 36.5024 193.809 36.733C193.411 36.96 192.95 37.0753 192.425 37.0753L192.432 37.0718Z" fill="#19343F"/>
<path d="M200.622 37.0728C199.96 37.0728 199.375 36.9157 198.861 36.6013C198.347 36.287 197.942 35.8469 197.649 35.2846C197.357 34.7222 197.209 34.0656 197.209 33.3182C197.209 32.5707 197.357 31.9036 197.649 31.3448C197.942 30.7859 198.347 30.3493 198.861 30.035C199.375 29.7206 199.963 29.5635 200.622 29.5635C201.45 29.5635 202.14 29.7835 202.693 30.2201C203.25 30.6567 203.605 31.2435 203.76 31.9804H202.577C202.475 31.5264 202.242 31.1736 201.883 30.9221C201.52 30.6707 201.094 30.5449 200.608 30.5449C200.185 30.5449 199.808 30.6497 199.474 30.8593C199.139 31.0688 198.875 31.3797 198.681 31.7883C198.488 32.197 198.392 32.7069 198.392 33.3182C198.392 33.7722 198.449 34.1774 198.558 34.5266C198.667 34.8759 198.822 35.1693 199.019 35.3998C199.217 35.6338 199.449 35.8085 199.72 35.9237C199.992 36.0425 200.287 36.1019 200.608 36.1019C200.928 36.1019 201.238 36.046 201.51 35.9307C201.781 35.8155 202.01 35.6513 202.196 35.4313C202.383 35.2112 202.51 34.9528 202.577 34.6524H203.76C203.612 35.3719 203.257 35.9552 202.693 36.3987C202.129 36.8458 201.439 37.0693 200.622 37.0693V37.0728Z" fill="#19343F"/>
<path d="M207.782 36.9084C207.37 36.9084 207.01 36.8455 206.707 36.7163C206.404 36.587 206.172 36.374 206.013 36.0666C205.851 35.7627 205.774 35.3506 205.774 34.8302V30.6948H204.506V29.7238H205.774L205.925 27.9355H206.929V29.7238H208.979V30.6948H206.929V34.8302C206.929 35.2563 207.017 35.5462 207.19 35.6964C207.366 35.8466 207.672 35.9199 208.113 35.9199H208.951V36.9014H207.782V36.9084Z" fill="#19343F"/>
<path d="M213.797 36.9077V27.3516H215.146L218.422 34.082L221.672 27.3516H223.036V36.9077H221.88V29.4123L218.851 35.6503H217.985L214.956 29.4647V36.9042H213.8L213.797 36.9077Z" fill="#19343F"/>
<path d="M227.058 37.0728C226.508 37.0728 226.047 36.9715 225.681 36.7655C225.314 36.5594 225.04 36.287 224.853 35.9447C224.666 35.6024 224.578 35.2357 224.578 34.8445C224.578 34.3695 224.698 33.9678 224.944 33.636C225.187 33.3042 225.529 33.0527 225.969 32.8781C226.41 32.7034 226.924 32.6196 227.512 32.6196H229.315C229.315 32.1551 229.259 31.7674 229.15 31.46C229.041 31.1527 228.861 30.9187 228.615 30.765C228.368 30.6113 228.037 30.531 227.625 30.531C227.213 30.531 226.857 30.6323 226.565 30.8383C226.272 31.0444 226.086 31.3448 226.015 31.7464H224.832C224.888 31.2714 225.047 30.8732 225.314 30.5519C225.582 30.2306 225.917 29.9826 226.325 29.815C226.734 29.6473 227.167 29.5635 227.625 29.5635C228.276 29.5635 228.812 29.6787 229.234 29.9127C229.657 30.1433 229.967 30.4681 230.171 30.8837C230.376 31.2994 230.474 31.7883 230.474 32.3507V36.9122H229.442L229.372 35.6827C229.28 35.8748 229.164 36.053 229.02 36.2206C228.879 36.3883 228.71 36.5384 228.516 36.6642C228.322 36.7934 228.104 36.8912 227.861 36.9646C227.618 37.0379 227.35 37.0728 227.054 37.0728H227.058ZM227.22 36.1019C227.523 36.1019 227.801 36.032 228.058 35.8958C228.315 35.7596 228.537 35.5745 228.727 35.3439C228.914 35.1099 229.058 34.8515 229.16 34.5581C229.263 34.2682 229.312 33.9608 229.312 33.643V33.5068H227.604C227.17 33.5068 226.822 33.5626 226.551 33.6709C226.279 33.7792 226.086 33.9329 225.966 34.1285C225.846 34.3241 225.786 34.5441 225.786 34.7921C225.786 35.0575 225.843 35.2846 225.952 35.4802C226.061 35.6757 226.223 35.8294 226.441 35.9377C226.656 36.046 226.917 36.1019 227.22 36.1019Z" fill="#19343F"/>
<path d="M232.109 36.9083V29.7272H233.156L233.212 30.8589C233.423 30.4502 233.73 30.1324 234.128 29.9019C234.526 29.6713 234.987 29.5596 235.512 29.5596C236.037 29.5596 236.509 29.6609 236.903 29.8599C237.298 30.059 237.604 30.3664 237.826 30.775C238.048 31.1837 238.157 31.7041 238.157 32.3328V36.9048H237.002V32.455C237.002 31.8194 236.843 31.3409 236.526 31.023C236.209 30.7052 235.783 30.5445 235.251 30.5445C234.892 30.5445 234.564 30.6283 234.262 30.796C233.959 30.9636 233.719 31.2116 233.539 31.5399C233.36 31.8683 233.272 32.2664 233.272 32.7414V36.9048H232.117L232.109 36.9083Z" fill="#19343F"/>
<path d="M242.048 37.0728C241.499 37.0728 241.037 36.9715 240.671 36.7655C240.305 36.5594 240.03 36.287 239.847 35.9447C239.664 35.6024 239.572 35.2357 239.572 34.8445C239.572 34.3695 239.696 33.9678 239.939 33.636C240.182 33.3042 240.523 33.0527 240.964 32.8781C241.404 32.7034 241.918 32.6196 242.506 32.6196H244.31C244.31 32.1551 244.253 31.7674 244.144 31.46C244.035 31.1492 243.855 30.9187 243.609 30.765C243.362 30.6113 243.031 30.531 242.619 30.531C242.207 30.531 241.851 30.6323 241.559 30.8383C241.266 31.0444 241.08 31.3448 241.009 31.7464H239.826C239.882 31.2714 240.041 30.8732 240.308 30.5519C240.573 30.2306 240.911 29.9826 241.319 29.815C241.728 29.6473 242.161 29.5635 242.619 29.5635C243.271 29.5635 243.809 29.6787 244.229 29.9127C244.651 30.1433 244.961 30.4681 245.166 30.8837C245.366 31.2994 245.468 31.7883 245.468 32.3507V36.9122H244.436L244.366 35.6827C244.274 35.8748 244.158 36.053 244.014 36.2206C243.873 36.3883 243.704 36.5384 243.51 36.6642C243.316 36.7934 243.098 36.8912 242.855 36.9646C242.612 37.0379 242.344 37.0728 242.048 37.0728ZM242.214 36.1019C242.517 36.1019 242.795 36.032 243.052 35.8958C243.309 35.7596 243.531 35.5745 243.721 35.3439C243.908 35.1099 244.052 34.8515 244.155 34.5581C244.257 34.2682 244.306 33.9608 244.306 33.643V33.5068H242.598C242.168 33.5068 241.816 33.5626 241.545 33.6709C241.273 33.7792 241.08 33.9329 240.96 34.1285C240.84 34.3241 240.78 34.5441 240.78 34.7921C240.78 35.0575 240.837 35.2846 240.946 35.4802C241.055 35.6757 241.221 35.8294 241.435 35.9377C241.65 36.046 241.911 36.1019 242.214 36.1019Z" fill="#19343F"/>
<path d="M249.939 40.0731C249.288 40.0731 248.717 39.9928 248.224 39.8356C247.734 39.6749 247.35 39.4339 247.083 39.1056C246.812 38.7773 246.678 38.3721 246.678 37.8901C246.678 37.6631 246.72 37.4256 246.808 37.1811C246.896 36.9366 247.048 36.6991 247.262 36.4721C247.477 36.2451 247.784 36.039 248.178 35.8574L249.059 36.3219C248.534 36.521 248.196 36.755 248.041 37.017C247.886 37.2789 247.808 37.5374 247.808 37.7819C247.808 38.0822 247.896 38.3337 248.076 38.5328C248.256 38.7319 248.506 38.8821 248.826 38.9834C249.147 39.0846 249.52 39.1335 249.943 39.1335C250.365 39.1335 250.711 39.0812 251.01 38.9764C251.309 38.8716 251.538 38.7214 251.697 38.5258C251.855 38.3302 251.936 38.0997 251.936 37.8377C251.936 37.457 251.813 37.1567 251.563 36.9436C251.316 36.7305 250.834 36.6048 250.119 36.5664C249.559 36.5315 249.09 36.4791 248.714 36.4162C248.337 36.3533 248.027 36.2765 247.784 36.1892C247.541 36.1019 247.34 36.0041 247.178 35.8958C247.016 35.7875 246.871 35.6723 246.745 35.5535V35.2392L248.108 33.9434L249.196 34.2996L247.71 35.5151L247.889 34.9947C247.992 35.068 248.087 35.1344 248.178 35.2007C248.27 35.2636 248.397 35.323 248.559 35.3719C248.721 35.4208 248.943 35.4697 249.235 35.5151C249.524 35.5605 249.908 35.6024 250.383 35.6373C251.045 35.6827 251.57 35.791 251.968 35.9656C252.363 36.1403 252.648 36.3778 252.82 36.6816C252.993 36.9855 253.081 37.3557 253.081 37.7958C253.081 38.1765 252.972 38.5433 252.757 38.8891C252.542 39.2348 252.201 39.5177 251.739 39.7413C251.274 39.9648 250.675 40.0766 249.943 40.0766L249.939 40.0731ZM249.925 34.6698C249.337 34.6698 248.84 34.5581 248.432 34.3345C248.023 34.111 247.713 33.8071 247.502 33.4194C247.291 33.0318 247.185 32.5987 247.185 32.1167C247.185 31.6347 247.294 31.2016 247.509 30.8209C247.724 30.4401 248.037 30.1328 248.446 29.9058C248.854 29.6787 249.348 29.5635 249.925 29.5635C250.503 29.5635 251.021 29.6787 251.426 29.9058C251.831 30.1328 252.137 30.4367 252.348 30.8209C252.56 31.2016 252.665 31.6347 252.665 32.1167C252.665 32.5987 252.56 33.0352 252.348 33.4194C252.137 33.8071 251.831 34.111 251.426 34.3345C251.021 34.5581 250.52 34.6698 249.925 34.6698ZM249.925 33.7268C250.439 33.7268 250.837 33.5941 251.123 33.3251C251.408 33.0562 251.549 32.6545 251.549 32.1167C251.549 31.5788 251.408 31.1806 251.123 30.9152C250.837 30.6497 250.439 30.5205 249.925 30.5205C249.439 30.5205 249.041 30.6532 248.735 30.9152C248.428 31.1806 248.273 31.5788 248.273 32.1167C248.273 32.6545 248.421 33.0562 248.721 33.3251C249.02 33.5941 249.422 33.7268 249.925 33.7268ZM251.137 30.6951L250.792 29.7241H253.627V30.5834L251.133 30.6916L251.137 30.6951Z" fill="#19343F"/>
<path d="M257.469 37.0728C256.828 37.0728 256.258 36.9192 255.761 36.6083C255.264 36.2974 254.877 35.8609 254.599 35.2985C254.32 34.7362 254.179 34.0761 254.179 33.3182C254.179 32.5602 254.32 31.9036 254.599 31.3378C254.877 30.772 255.268 30.3354 255.768 30.028C256.268 29.7172 256.842 29.5635 257.497 29.5635C258.195 29.5635 258.779 29.7172 259.244 30.028C259.713 30.3389 260.065 30.751 260.305 31.2714C260.544 31.7918 260.664 32.3611 260.664 32.9794V33.2518C260.664 33.3426 260.66 33.4509 260.65 33.5801H255.046V32.693H259.533C259.516 31.9909 259.311 31.4565 258.92 31.0898C258.529 30.7231 258.047 30.5379 257.469 30.5379C257.085 30.5379 256.73 30.6323 256.402 30.8174C256.074 31.0025 255.814 31.2784 255.609 31.6416C255.409 32.0049 255.307 32.4624 255.307 33.0073V33.388C255.307 33.9888 255.409 34.4917 255.609 34.8969C255.81 35.302 256.074 35.6059 256.402 35.805C256.73 36.0041 257.082 36.1054 257.469 36.1054C257.983 36.1054 258.388 36.0076 258.681 35.812C258.973 35.6164 259.192 35.3369 259.329 34.9737H260.47C260.361 35.3754 260.171 35.7351 259.9 36.053C259.628 36.3708 259.29 36.6223 258.882 36.8039C258.473 36.9855 258.001 37.0763 257.469 37.0763V37.0728Z" fill="#19343F"/>
<path d="M261.984 36.9087V29.7276H263.03L263.087 30.7091C263.309 30.3528 263.605 30.0734 263.981 29.8708C264.358 29.6648 264.753 29.5635 265.165 29.5635C265.514 29.5635 265.827 29.6124 266.109 29.7067C266.387 29.801 266.634 29.9477 266.845 30.1433C267.056 30.3389 267.225 30.5834 267.356 30.8732C267.595 30.4471 267.919 30.1188 268.328 29.8988C268.736 29.6752 269.166 29.5635 269.617 29.5635C270.149 29.5635 270.607 29.6648 270.987 29.8708C271.367 30.0769 271.663 30.3843 271.868 30.7999C272.075 31.2155 272.178 31.729 272.178 32.3507V36.9122H271.033V32.4764C271.033 31.8303 270.892 31.3483 270.607 31.0304C270.321 30.7126 269.937 30.5519 269.451 30.5519C269.12 30.5519 268.821 30.6392 268.55 30.8104C268.279 30.9815 268.064 31.2365 267.902 31.5753C267.74 31.9106 267.662 32.3227 267.662 32.8047V36.9157H266.507V32.4799C266.507 31.8337 266.366 31.3518 266.081 31.0339C265.795 30.7161 265.415 30.5554 264.939 30.5554C264.619 30.5554 264.323 30.6427 264.052 30.8139C263.781 30.985 263.562 31.24 263.397 31.5788C263.231 31.9141 263.15 32.3262 263.15 32.8082V36.9192H261.995L261.984 36.9087Z" fill="#19343F"/>
<path d="M276.813 37.0728C276.172 37.0728 275.601 36.9192 275.105 36.6083C274.608 36.2974 274.221 35.8609 273.942 35.2985C273.664 34.7362 273.523 34.0761 273.523 33.3182C273.523 32.5602 273.664 31.9036 273.942 31.3378C274.221 30.772 274.612 30.3354 275.112 30.028C275.612 29.7172 276.19 29.5635 276.841 29.5635C277.539 29.5635 278.12 29.7172 278.588 30.028C279.057 30.3389 279.409 30.751 279.648 31.2714C279.888 31.7918 280.008 32.3611 280.008 32.9794V33.2518C280.008 33.3426 280.004 33.4509 279.994 33.5801H274.39V32.693H278.877C278.859 31.9909 278.655 31.4565 278.264 31.0898C277.873 30.7231 277.391 30.5379 276.813 30.5379C276.429 30.5379 276.073 30.6323 275.746 30.8174C275.418 31.0025 275.158 31.2784 274.953 31.6416C274.752 32.0049 274.65 32.4624 274.65 33.0073V33.388C274.65 33.9888 274.752 34.4917 274.953 34.8969C275.154 35.302 275.418 35.6059 275.746 35.805C276.07 36.0041 276.426 36.1054 276.813 36.1054C277.327 36.1054 277.732 36.0076 278.025 35.812C278.317 35.6164 278.535 35.3369 278.673 34.9737H279.814C279.705 35.3754 279.514 35.7351 279.243 36.053C278.972 36.3708 278.634 36.6223 278.225 36.8039C277.817 36.9855 277.345 37.0763 276.813 37.0763V37.0728Z" fill="#19343F"/>
<path d="M281.332 36.9083V29.7272H282.378L282.434 30.8589C282.646 30.4502 282.952 30.1324 283.35 29.9019C283.748 29.6713 284.21 29.5596 284.734 29.5596C285.259 29.5596 285.731 29.6609 286.126 29.8599C286.52 30.059 286.827 30.3664 287.049 30.775C287.27 31.1837 287.38 31.7041 287.38 32.3328V36.9048H286.224V32.455C286.224 31.8194 286.066 31.3409 285.749 31.023C285.432 30.7052 285.006 30.5445 284.474 30.5445C284.115 30.5445 283.787 30.6283 283.484 30.796C283.181 30.9636 282.942 31.2116 282.762 31.5399C282.582 31.8683 282.494 32.2664 282.494 32.7414V36.9048H281.339L281.332 36.9083Z" fill="#19343F"/>
<path d="M291.821 36.9084C291.408 36.9084 291.049 36.8455 290.746 36.7163C290.443 36.587 290.211 36.374 290.052 36.0666C289.89 35.7627 289.813 35.3506 289.813 34.8302V30.6948H288.545V29.7238H289.813L289.964 27.9355H290.968V29.7238H293.018V30.6948H290.968V34.8302C290.968 35.2563 291.056 35.5462 291.229 35.6964C291.405 35.8466 291.711 35.9199 292.152 35.9199H292.99V36.9014H291.821V36.9084Z" fill="#19343F"/>
<path d="M300.923 37.0725C300.215 37.0725 299.602 36.9432 299.077 36.6918C298.552 36.4368 298.151 36.0805 297.866 35.6265C297.58 35.1724 297.439 34.645 297.439 34.0408H298.651C298.651 34.4145 298.739 34.7568 298.912 35.0711C299.088 35.3855 299.341 35.637 299.676 35.8221C300.011 36.0072 300.426 36.1015 300.923 36.1015C301.353 36.1015 301.722 36.0316 302.032 35.8884C302.342 35.7452 302.575 35.5531 302.733 35.3086C302.895 35.0642 302.973 34.7847 302.973 34.4774C302.973 34.1316 302.899 33.8417 302.747 33.6112C302.596 33.3807 302.388 33.1886 302.12 33.0384C301.853 32.8882 301.546 32.7555 301.198 32.6367C300.849 32.518 300.472 32.3957 300.067 32.2665C299.26 32.0115 298.676 31.6902 298.313 31.3025C297.95 30.9148 297.771 30.4188 297.771 29.8076C297.771 29.2872 297.89 28.8331 298.137 28.442C298.383 28.0508 298.729 27.7434 299.183 27.5199C299.637 27.2963 300.176 27.1846 300.8 27.1846C301.423 27.1846 301.948 27.2998 302.402 27.5269C302.857 27.7539 303.212 28.0647 303.469 28.4629C303.727 28.8611 303.853 29.3151 303.853 29.8355H302.642C302.642 29.5701 302.571 29.3116 302.434 29.0567C302.297 28.8017 302.089 28.5921 301.807 28.421C301.525 28.2499 301.177 28.1695 300.754 28.1695C300.405 28.159 300.095 28.2184 299.824 28.3407C299.553 28.4629 299.341 28.6375 299.19 28.8681C299.039 29.0951 298.961 29.3745 298.961 29.6993C298.961 30.0102 299.028 30.2582 299.162 30.4503C299.296 30.6424 299.486 30.803 299.739 30.9358C299.993 31.0685 300.289 31.1872 300.627 31.299C300.965 31.4073 301.342 31.533 301.758 31.6692C302.226 31.8229 302.642 32.0115 303.005 32.235C303.367 32.4586 303.653 32.7415 303.857 33.0873C304.065 33.4331 304.167 33.8731 304.167 34.411C304.167 34.8651 304.044 35.2947 303.801 35.6998C303.558 36.105 303.198 36.4333 302.719 36.6883C302.24 36.9432 301.641 37.069 300.916 37.069L300.923 37.0725Z" fill="#19343F"/>
<path d="M308.675 37.0728C308.013 37.0728 307.428 36.9157 306.914 36.6013C306.399 36.287 305.994 35.8469 305.702 35.2846C305.41 34.7222 305.262 34.0656 305.262 33.3182C305.262 32.5707 305.41 31.9036 305.702 31.3448C305.994 30.7859 306.399 30.3493 306.914 30.035C307.428 29.7206 308.016 29.5635 308.675 29.5635C309.502 29.5635 310.193 29.7835 310.746 30.2201C311.302 30.6567 311.658 31.2435 311.813 31.9804H310.63C310.527 31.5264 310.295 31.1736 309.936 30.9221C309.573 30.6707 309.147 30.5449 308.661 30.5449C308.238 30.5449 307.861 30.6497 307.527 30.8593C307.192 31.0688 306.928 31.3797 306.734 31.7883C306.54 32.197 306.445 32.7069 306.445 33.3182C306.445 33.7722 306.502 34.1774 306.611 34.5266C306.72 34.8759 306.875 35.1693 307.072 35.3998C307.269 35.6338 307.502 35.8085 307.773 35.9237C308.044 36.0425 308.34 36.1019 308.661 36.1019C308.981 36.1019 309.291 36.046 309.562 35.9307C309.834 35.8155 310.063 35.6513 310.249 35.4313C310.436 35.2112 310.563 34.9528 310.63 34.6524H311.813C311.665 35.3719 311.309 35.9552 310.746 36.3987C310.182 36.8458 309.492 37.0693 308.675 37.0693V37.0728Z" fill="#19343F"/>
<path d="M313.219 36.9086V27.0801H314.374V30.8906C314.614 30.482 314.938 30.1572 315.353 29.9197C315.769 29.6822 316.213 29.5634 316.688 29.5634C317.248 29.5634 317.724 29.6647 318.115 29.8708C318.506 30.0768 318.801 30.3877 319.009 30.8068C319.217 31.2259 319.319 31.7568 319.319 32.403V36.9086H318.178V32.5252C318.178 31.8686 318.023 31.3761 317.71 31.0443C317.396 30.7125 316.977 30.5449 316.442 30.5449C316.065 30.5449 315.719 30.6322 315.41 30.8103C315.096 30.9884 314.846 31.2504 314.659 31.5962C314.469 31.942 314.378 32.3611 314.378 32.8536V36.9086H313.222H313.219Z" fill="#19343F"/>
<path d="M324.067 37.0728C323.397 37.0728 322.806 36.9192 322.292 36.6083C321.777 36.2974 321.379 35.8609 321.094 35.2985C320.809 34.7362 320.668 34.0761 320.668 33.3182C320.668 32.5602 320.812 31.8931 321.101 31.3308C321.39 30.7685 321.795 30.3354 322.313 30.028C322.83 29.7172 323.426 29.5635 324.095 29.5635C324.764 29.5635 325.37 29.7172 325.877 30.028C326.388 30.3389 326.782 30.772 327.068 31.3308C327.353 31.8896 327.494 32.5532 327.494 33.3182C327.494 34.0831 327.349 34.7327 327.061 35.2985C326.772 35.8644 326.37 36.3009 325.856 36.6083C325.342 36.9157 324.746 37.0728 324.067 37.0728ZM324.067 36.0879C324.489 36.0879 324.87 35.9866 325.208 35.7805C325.546 35.5745 325.817 35.2671 326.014 34.8515C326.212 34.4358 326.31 33.9259 326.31 33.3147C326.31 32.7034 326.215 32.1795 326.022 31.7709C325.828 31.3622 325.564 31.0549 325.229 30.8488C324.894 30.6427 324.514 30.5414 324.095 30.5414C323.676 30.5414 323.306 30.6427 322.964 30.8488C322.626 31.0549 322.355 31.3622 322.151 31.7709C321.95 32.1795 321.848 32.693 321.848 33.3147C321.848 33.9364 321.946 34.4358 322.144 34.8515C322.341 35.2671 322.609 35.5745 322.943 35.7805C323.278 35.9866 323.651 36.0879 324.067 36.0879Z" fill="#19343F"/>
<path d="M332.008 37.0728C331.339 37.0728 330.747 36.9192 330.233 36.6083C329.719 36.2974 329.321 35.8609 329.036 35.2985C328.75 34.7362 328.609 34.0761 328.609 33.3182C328.609 32.5602 328.754 31.8931 329.043 31.3308C329.331 30.772 329.736 30.3354 330.254 30.028C330.772 29.7172 331.367 29.5635 332.036 29.5635C332.706 29.5635 333.312 29.7172 333.819 30.028C334.329 30.3389 334.724 30.772 335.009 31.3308C335.295 31.8896 335.435 32.5532 335.435 33.3182C335.435 34.0831 335.291 34.7327 335.002 35.2985C334.713 35.8644 334.312 36.3009 333.798 36.6083C333.283 36.9157 332.688 37.0728 332.008 37.0728ZM332.008 36.0879C332.431 36.0879 332.811 35.9866 333.153 35.7805C333.491 35.5745 333.762 35.2671 333.96 34.8515C334.157 34.4358 334.255 33.9259 334.255 33.3147C334.255 32.7034 334.16 32.1795 333.967 31.7709C333.773 31.3622 333.509 31.0549 333.174 30.8488C332.84 30.6427 332.459 30.5414 332.04 30.5414C331.621 30.5414 331.251 30.6427 330.909 30.8488C330.571 31.0549 330.3 31.3622 330.096 31.7709C329.895 32.1795 329.793 32.693 329.793 33.3147C329.793 33.9364 329.891 34.4358 330.089 34.8515C330.286 35.2671 330.554 35.5745 330.888 35.7805C331.223 35.9866 331.596 36.0879 332.012 36.0879H332.008Z" fill="#19343F"/>
<path d="M336.842 36.9086V27.0801H337.997V36.9086H336.842Z" fill="#19343F"/>
<path d="M149.814 11.3193H149.232V39.7955H149.814V11.3193Z" fill="#2BA7AA"/>
</g>
<defs>
<clipPath id="clip0_1_191">
<rect width="338" height="50.4035" fill="white"/>
</clipPath>
</defs>
</svg>
