<svg width="80" height="32" viewBox="0 0 80 32" fill="none" xmlns="http://www.w3.org/2000/svg">
<path d="M63.5342 16.4643C63.3543 12.0108 59.4856 8.45703 54.7623 8.45703C49.9039 8.45703 45.9453 12.1907 45.9453 16.7792C45.9453 21.3676 49.9039 25.1013 54.7623 25.1013C56.6066 25.1013 58.361 24.5615 59.8005 23.6168V24.9663H63.5792L63.5342 16.4643ZM54.7173 21.5475C51.9732 21.5475 49.724 19.4332 49.724 16.8241C49.724 14.215 51.9732 12.1008 54.7173 12.1008C57.4613 12.1008 59.7106 14.215 59.7106 16.8241C59.7106 19.4332 57.5063 21.5475 54.7173 21.5475Z" fill="white"/>
<path d="M39.2883 20.1981C38.8385 20.603 38.2987 20.9629 37.7139 21.1878C37.1291 21.4127 36.4993 21.5477 35.8246 21.5477C35.4647 21.5477 35.1048 21.5027 34.7899 21.4577C34.475 21.3677 34.1601 21.2778 33.8452 21.1428C33.5304 21.0078 33.2604 20.8279 32.9905 20.6929C32.7206 20.513 32.4507 20.2881 32.2708 20.0632L40.7728 16.9142L44.4166 15.5646C44.2366 14.35 43.7868 13.2254 43.067 12.2357C41.5376 9.98647 38.8385 8.50195 35.8246 8.50195C31.0562 8.50195 27.1426 12.2357 27.1426 16.8242C27.1426 17.2741 27.1876 17.6789 27.2325 18.0838C27.4125 19.2984 27.8623 20.423 28.5821 21.4127C28.9869 21.9525 29.4368 22.4924 29.9316 22.9422C30.4714 23.3921 31.0112 23.7969 31.641 24.1118C32.2708 24.4267 32.9006 24.6966 33.6203 24.8766C34.3401 25.0565 35.0598 25.1465 35.7796 25.1465C36.9492 25.1465 38.1188 24.9216 39.1534 24.4717C40.188 24.0668 41.1327 23.437 41.8974 22.6723C42.7072 21.9075 43.3369 21.0078 43.7418 20.0182C43.9217 19.6133 44.0567 19.1634 44.1916 18.7136H40.278C40.0981 19.2984 39.7382 19.7483 39.2883 20.1981ZM35.8246 12.0558C37.2191 12.0558 38.5236 12.6406 39.4233 13.5403L30.9213 16.6893C30.9213 14.1251 33.1255 12.0558 35.8246 12.0558Z" fill="white"/>
<path d="M76.2217 25.0112H80.0004V15.2498C80.0004 11.0663 77.2113 8.32227 72.8928 8.32227C68.6643 8.32227 65.6953 11.1562 65.6953 15.2498V24.9662H69.474V15.1148C69.474 13.2255 70.9135 11.876 72.8928 11.876C75.9968 11.876 76.2217 14.3501 76.2217 15.1148V25.0112Z" fill="white"/>
<path d="M17.696 8.41127L14.772 6.20703L12.3878 9.26597C8.78905 7.60155 4.33558 8.54622 1.81646 11.6951C-1.10753 15.3389 -0.432766 20.6021 3.34593 23.4811C4.78543 24.5607 6.44985 25.1455 8.15926 25.2355C10.9033 25.3704 13.7373 24.2908 15.5367 21.9966C18.1008 18.8477 17.9209 14.4392 15.3568 11.4702L17.696 8.41127ZM12.5677 19.7474C10.9033 21.8166 7.79939 22.2215 5.64013 20.6021C3.48088 18.9826 3.07602 15.9687 4.78543 13.8994C5.59515 12.9097 6.76474 12.2349 8.06929 12.1C8.38418 12.055 8.69908 12.055 8.96898 12.055C9.95864 12.1 10.9033 12.4599 11.713 13.0447C13.8273 14.6641 14.2322 17.6781 12.5677 19.7474Z" fill="white"/>
<path d="M17.8757 23.4828C17.3809 24.1126 16.841 24.6524 16.2562 25.1472C15.6714 25.597 15.0417 26.0469 14.3669 26.4067C13.7371 26.7666 13.0174 27.0365 12.2976 27.2614C11.5779 27.4863 10.8581 27.6663 10.0934 27.7112C9.37363 27.8012 8.60889 27.8462 7.84416 27.8012C7.07942 27.7562 6.35967 27.6213 5.63992 27.4413L5.45998 28.0261L4.74023 30.95C5.68491 31.1749 6.62958 31.3549 7.61924 31.3998C7.66422 31.3998 7.70921 31.3998 7.75419 31.3998C8.69886 31.4448 9.64354 31.3998 10.5882 31.3099C11.5779 31.1749 12.5225 30.995 13.4672 30.6801C14.4119 30.3652 15.3116 30.0054 16.2113 29.5106C17.1109 29.0607 17.9207 28.4759 18.6854 27.8462C19.4951 27.2164 20.2149 26.4517 20.8447 25.687C20.9346 25.597 21.0246 25.4621 21.1146 25.3271L18.1006 23.168C18.0106 23.3029 17.9207 23.3929 17.8757 23.4828Z" fill="white"/>
<path d="M23.9486 18.3537V0H20.1699V18.2637C20.1699 22.1323 22.824 24.8764 26.7377 25.1463V21.5476C25.0732 21.2776 23.9486 20.0181 23.9486 18.3537Z" fill="white"/>
</svg>
