<svg width="130" height="28" viewBox="0 0 130 28" fill="none" xmlns="http://www.w3.org/2000/svg">
<mask id="mask0_16_82" style="mask-type:luminance" maskUnits="userSpaceOnUse" x="31" y="3" width="99" height="22">
<path d="M129.683 3.72266H31.0625V24.2796H129.683V3.72266Z" fill="white"/>
</mask>
<g mask="url(#mask0_16_82)">
<path d="M62.7628 8.19273H63.7482V10.2234H62.4727C61.473 10.2234 60.7274 10.4639 60.2333 10.9463C59.742 11.4272 59.495 12.2181 59.495 13.3174V19.9761H57.4811V8.23907H59.495V10.112C59.495 10.2177 59.5482 10.2699 59.6516 10.2699C59.7105 10.2699 59.755 10.2553 59.7866 10.2249C59.8181 10.1945 59.8454 10.1351 59.8771 10.0438C60.2649 8.81121 61.2288 8.19415 62.7643 8.19415H62.7628V8.19273ZM76.1589 10.7087C76.6875 11.6488 76.9533 12.7815 76.9533 14.1054C76.9533 15.4293 76.6889 16.5621 76.1589 17.5021C75.6288 18.4422 74.9422 19.1461 74.099 19.6126C73.2559 20.079 72.3495 20.3122 71.3799 20.3122C69.4695 20.3122 68.1264 19.5445 67.3508 18.0091C67.2918 17.8889 67.2157 17.828 67.1267 17.828C67.0376 17.828 66.9916 17.8729 66.9916 17.9642V24.2623H64.9778V8.23757H66.9916V10.2467C66.9916 10.3364 67.0362 10.3828 67.1267 10.3828C67.2171 10.3828 67.2904 10.3234 67.3508 10.2017C68.1264 8.66634 69.4695 7.89864 71.3799 7.89864C72.3495 7.89864 73.2559 8.13186 74.099 8.59829C74.9422 9.06472 75.6274 9.76862 76.1589 10.7087ZM74.9408 14.1054C74.9408 12.7207 74.5717 11.6415 73.8333 10.8666C73.095 10.0917 72.1226 9.70491 70.9116 9.70491C69.7007 9.70491 68.7283 10.0931 67.99 10.8666C67.2502 11.6415 66.9802 12.7221 66.9802 14.1054C66.9802 15.4888 67.2516 16.5693 67.99 17.3442C68.7283 18.1207 69.7021 18.5059 70.9116 18.5059C72.1211 18.5059 73.095 18.1178 73.8333 17.3442C74.5717 16.5708 74.9408 15.4888 74.9408 14.1054ZM42.2421 10.7261C42.7708 11.6662 43.0365 12.7989 43.0365 14.1228C43.0365 15.4468 42.7722 16.5794 42.2421 17.5195C41.7121 18.4596 41.0255 19.1636 40.1823 19.6299C39.3392 20.0964 38.4328 20.3296 37.4632 20.3296C35.5528 20.3296 34.2097 19.5619 33.434 18.0265C33.3752 17.9063 33.299 17.8455 33.2099 17.8455C33.1209 17.8455 33.075 17.8903 33.075 17.9816V24.2796H31.0625V8.25502H33.0764V10.264C33.0764 10.3539 33.1209 10.4002 33.2114 10.4002C33.3019 10.4002 33.3752 10.3408 33.4355 10.2191C34.2112 8.68371 35.5542 7.91601 37.4647 7.91601C38.4342 7.91601 39.3406 8.14923 40.1838 8.61566C41.027 9.08209 41.7122 9.78607 42.2436 10.7261H42.2421ZM41.0226 14.1228C41.0226 12.738 40.6535 11.659 39.9152 10.884C39.1768 10.1105 38.2029 9.72228 36.9934 9.72228C35.784 9.72228 34.8102 10.1105 34.0718 10.884C33.3335 11.6604 33.062 12.7395 33.062 14.1228C33.062 15.5061 33.3335 16.5867 34.0718 17.3617C34.8102 18.138 35.7825 18.5233 36.9934 18.5233C38.2044 18.5233 39.1768 18.1351 39.9152 17.3617C40.6535 16.5881 41.0226 15.5061 41.0226 14.1228ZM53.9217 16.2478H56.0476C55.7646 17.3471 55.1857 18.2988 54.3138 19.1027C53.4404 19.9081 52.1908 20.3093 50.5633 20.3093C49.3395 20.3093 48.2622 20.0573 47.33 19.5532C46.3977 19.0491 45.6781 18.3321 45.1695 17.3978C44.6611 16.465 44.4083 15.367 44.4083 14.1025C44.4083 12.838 44.6553 11.74 45.1466 10.8072C45.6378 9.87442 46.3288 9.1559 47.2165 8.6519C48.1042 8.14781 49.1441 7.89572 50.3378 7.89572C51.5315 7.89572 52.5211 8.14488 53.3485 8.64029C54.1774 9.13711 54.795 9.79618 55.2059 10.6146C55.6166 11.4359 55.8206 12.3339 55.8206 13.3117V14.666H46.5328C46.606 15.8393 46.9996 16.7736 47.7077 17.4645C48.4159 18.1568 49.3682 18.503 50.5619 18.503C51.5315 18.503 52.2755 18.3046 52.7898 17.9048C53.304 17.505 53.6804 16.9532 53.9202 16.2449L53.9217 16.2478ZM46.4911 12.9756H53.5195C53.5195 11.953 53.2581 11.1505 52.7352 10.5711C52.2123 9.99315 51.3922 9.70199 50.2732 9.70199C49.2289 9.70199 48.3742 9.98447 47.7106 10.5494C47.047 11.1129 46.6405 11.9226 46.4911 12.9756ZM78.5778 19.9733H80.5931V3.72266H78.5778V19.9747V19.9733ZM106.901 6.95568H109.254V4.41504H106.901V6.95568ZM115.59 18.225C115.224 18.2626 115.002 18.2814 114.93 18.2814C114.826 18.2814 114.741 18.251 114.682 18.1902C114.623 18.1308 114.592 18.0482 114.592 17.941C114.592 17.8672 114.611 17.6441 114.65 17.2747C114.685 16.9068 114.705 16.3375 114.705 15.5713V9.95549H117.578L117.012 8.23615H114.706V5.07554H112.693V8.23473H110.502V9.95407H112.693V16.1333C112.693 17.4283 113.008 18.3915 113.633 19.0231C114.26 19.6546 115.215 19.9718 116.5 19.9718H118.066V18.167H117.282C116.521 18.167 115.957 18.1858 115.591 18.2235L115.59 18.225ZM127.764 8.23615L124.428 18.0844C124.384 18.2061 124.313 18.364 124.085 18.364C123.857 18.364 123.785 18.2061 123.74 18.0844L120.405 8.23615H118.351L122.213 19.9733H123.579C123.668 19.9733 123.736 19.982 123.782 19.9964C123.827 20.011 123.864 20.0486 123.894 20.1094C123.953 20.1992 123.945 20.3353 123.871 20.515L123.245 22.23C123.154 22.456 122.983 22.569 122.731 22.569C122.64 22.569 122.432 22.5501 122.104 22.5124C121.775 22.4748 121.352 22.456 120.829 22.456H119.194V24.2607H121.343C122.597 24.2607 123.351 24.0464 124 23.6176C124.65 23.1889 125.152 22.4328 125.511 21.3494L129.683 8.68663V8.23615H127.766H127.764ZM100.084 12.615L96.9281 8.23615H94.712V8.68663L98.4938 13.765L93.8826 19.5213V19.9718H96.1439L99.8149 15.254L103.24 19.9718H105.411V19.5213L101.404 14.104L105.748 8.70985V8.23615H103.487L100.085 12.615H100.084ZM107.115 19.9733H109.13V8.23757H107.115V19.9747V19.9733ZM93.8552 16.2478C93.5707 17.3471 92.9939 18.2988 92.122 19.1027C91.2483 19.9081 89.999 20.3093 88.3712 20.3093C87.1476 20.3093 86.0701 20.0573 85.1379 19.5532C84.204 19.0491 83.4863 18.3321 82.9776 17.3978C82.4705 16.465 82.2177 15.367 82.2177 14.1025C82.2177 12.838 82.4647 11.74 82.9561 10.8072C83.4491 9.87442 84.1385 9.1559 85.0263 8.6519C85.9133 8.14781 86.9535 7.89572 88.1488 7.89572C89.3441 7.89572 90.3321 8.14488 91.1606 8.64029C91.9882 9.13711 92.6076 9.79618 93.0178 10.6146C93.429 11.4359 93.6328 12.3339 93.6328 13.3117V14.666H84.344C84.4184 15.8393 84.8101 16.7736 85.519 17.4645C86.2269 18.1568 87.1795 18.503 88.373 18.503C89.3424 18.503 90.0867 18.3046 90.6006 17.9048C91.1145 17.505 91.4911 16.9532 91.7295 16.2449H93.8569L93.8552 16.2478ZM84.3493 12.9756H91.3777C91.3777 11.953 91.1163 11.1505 90.5953 10.5711C90.0716 9.99315 89.252 9.70199 88.1329 9.70199C87.0882 9.70199 86.234 9.98447 85.5704 10.5494C84.9067 11.1129 84.4991 11.9226 84.3511 12.9756H84.3493Z" fill="white"/>
</g>
<path fill-rule="evenodd" clip-rule="evenodd" d="M3.26541 0L11.205 7.34601V7.34433V0.0169506H12.7505V7.37889L20.7257 0V8.37554H24V20.4565H20.7357V27.9145L12.7505 20.8693V27.9954H11.205V20.9855L3.27441 28V20.4565H0V8.37554H3.26541V0ZM10.0399 9.90863H1.54552V18.9234H3.27247V16.0798L10.0399 9.90863ZM4.81985 16.76V24.579L11.205 18.9315V10.936L4.81985 16.76ZM12.795 18.8568V10.9285L19.182 16.7529V20.4565H19.1902V24.4992L12.795 18.8568ZM20.7357 18.9234H22.4545V9.90863H14.0234L20.7357 16.0159V18.9234ZM19.1801 8.37554V3.52643L13.9391 8.37554H19.1801ZM10.0519 8.37554H4.81094V3.52643L10.0519 8.37554Z" fill="white"/>
</svg>
